<svg width="32" height="37" viewBox="0 0 32 37" fill="none" xmlns="http://www.w3.org/2000/svg">
<path d="M26.4545 30.6251L30.7615 28.0971L22.9902 16.0656L19.5259 18.1255L26.4077 30.6251H26.4545ZM10.5374 33.7617L14.8912 36.1961L21.5858 23.556L18.0746 21.5898L10.5842 33.7617H10.5374ZM0.0507812 21.5898V26.5522L14.423 25.9436L14.3294 21.9643L0.0507812 21.543V21.5898ZM31.7915 15.4102L31.7446 10.4478L17.3724 11.0564V15.0825L31.7446 15.4102H31.7915ZM5.29408 6.28124L1.0339 8.80926L8.71159 20.8876L12.1291 18.8745L5.29408 6.28124ZM21.1644 3.28507L16.8574 0.803864L10.2097 13.444L13.6272 15.457L21.1176 3.28507H21.1644Z" fill="white"/>
</svg>
