<svg width="193" height="37" viewBox="0 0 193 37" fill="none" xmlns="http://www.w3.org/2000/svg">
<path d="M26.4545 30.6251L30.7615 28.0971L22.9902 16.0656L19.5259 18.1255L26.4077 30.6251H26.4545ZM10.5374 33.7617L14.8912 36.1961L21.5858 23.556L18.0746 21.5898L10.5842 33.7617H10.5374ZM0.0507812 21.5898V26.5522L14.423 25.9436L14.3294 21.9643L0.0507812 21.543V21.5898ZM31.7915 15.4102L31.7446 10.4478L17.3724 11.0564V15.0825L31.7446 15.4102H31.7915ZM5.29408 6.28124L1.0339 8.80926L8.71159 20.8876L12.1291 18.8745L5.29408 6.28124ZM21.1644 3.28507L16.8574 0.803864L10.2097 13.444L13.6272 15.457L21.1176 3.28507H21.1644Z" fill="black"/>
<path d="M49.0375 28.2664L41.0757 19.2971L48.8655 11.065H52.4778L43.8771 20.0097L43.9017 18.4616L52.7235 28.2664H49.0375ZM38.643 28.2664V11.065H41.4689V28.2664H38.643ZM58.4497 28.5121C57.4504 28.5121 56.5576 28.291 55.7712 27.8486C55.0013 27.4063 54.3951 26.8002 53.9528 26.0302C53.5269 25.2439 53.3139 24.3428 53.3139 23.3271V16.4711H56.017V23.2043C56.017 23.7776 56.1071 24.2691 56.2873 24.6787C56.4839 25.0718 56.7624 25.3749 57.1228 25.5879C57.4996 25.8009 57.9419 25.9073 58.4497 25.9073C59.2361 25.9073 59.834 25.678 60.2436 25.2193C60.6695 24.7442 60.8825 24.0725 60.8825 23.2043V16.4711H63.5856V23.3271C63.5856 24.3592 63.3644 25.2684 62.9221 26.0548C62.4962 26.8247 61.8982 27.4309 61.1282 27.8732C60.3583 28.2992 59.4654 28.5121 58.4497 28.5121ZM68.0973 28.2664V11.5565H70.8004V28.2664H68.0973ZM65.2714 18.9285V16.4711H73.6263V18.9285H65.2714ZM83.6751 28.2664V21.4595C83.6751 20.6732 83.4212 20.0261 82.9134 19.5182C82.4219 19.0104 81.783 18.7565 80.9966 18.7565C80.4724 18.7565 80.0055 18.8711 79.5959 19.1005C79.1864 19.3298 78.8669 19.6493 78.6376 20.0589C78.4082 20.4684 78.2935 20.9353 78.2935 21.4595L77.2369 20.8698C77.2369 19.9688 77.4335 19.1742 77.8267 18.4862C78.2198 17.7817 78.7604 17.2329 79.4485 16.8397C80.1529 16.4302 80.9393 16.2254 81.8075 16.2254C82.6922 16.2254 83.4785 16.4548 84.1666 16.9135C84.8547 17.3558 85.3953 17.9374 85.7884 18.6582C86.1816 19.3626 86.3782 20.0998 86.3782 20.8698V28.2664H83.6751ZM75.5905 28.2664V16.4711H78.2935V28.2664H75.5905ZM89.1496 28.2664V16.4711H91.8527V28.2664H89.1496ZM90.5012 14.3087C90.0425 14.3087 89.6575 14.153 89.3462 13.8418C89.0513 13.5305 88.9039 13.1455 88.9039 12.6868C88.9039 12.2281 89.0513 11.8431 89.3462 11.5319C89.6575 11.2206 90.0425 11.065 90.5012 11.065C90.9763 11.065 91.3612 11.2206 91.6561 11.5319C91.951 11.8431 92.0984 12.2281 92.0984 12.6868C92.0984 13.1455 91.951 13.5305 91.6561 13.8418C91.3612 14.153 90.9763 14.3087 90.5012 14.3087ZM96.6783 28.2664V11.5565H99.3814V28.2664H96.6783ZM93.8524 18.9285V16.4711H102.207V18.9285H93.8524ZM104.196 28.2664V16.4711H106.899V28.2664H104.196ZM105.548 14.3087C105.089 14.3087 104.704 14.153 104.393 13.8418C104.098 13.5305 103.95 13.1455 103.95 12.6868C103.95 12.2281 104.098 11.8431 104.393 11.5319C104.704 11.2206 105.089 11.065 105.548 11.065C106.023 11.065 106.408 11.2206 106.703 11.5319C106.997 11.8431 107.145 12.2281 107.145 12.6868C107.145 13.1455 106.997 13.5305 106.703 13.8418C106.408 14.153 106.023 14.3087 105.548 14.3087ZM119.642 28.2664L113.99 11.065H116.767L121.018 24.3101H120.281L124.434 11.065H126.4L130.553 24.3101H129.816L134.067 11.065H136.844L131.192 28.2664H129.226L125.048 15.0459H125.786L121.608 28.2664H119.642ZM142.203 28.5121C141.138 28.5121 140.172 28.2418 139.304 27.7012C138.452 27.1606 137.772 26.4316 137.264 25.5142C136.773 24.5804 136.527 23.5401 136.527 22.3933C136.527 21.2302 136.773 20.1899 137.264 19.2725C137.772 18.3387 138.452 17.6015 139.304 17.0609C140.172 16.5039 141.138 16.2254 142.203 16.2254C143.104 16.2254 143.899 16.422 144.587 16.8152C145.291 17.192 145.848 17.7162 146.258 18.3879C146.667 19.0595 146.872 19.8213 146.872 20.6732V24.0643C146.872 24.9162 146.667 25.678 146.258 26.3497C145.865 27.0213 145.316 27.5538 144.611 27.9469C143.907 28.3237 143.104 28.5121 142.203 28.5121ZM142.646 25.9565C143.645 25.9565 144.448 25.6206 145.054 24.949C145.676 24.2773 145.988 23.4172 145.988 22.3688C145.988 21.6643 145.848 21.0418 145.57 20.5012C145.291 19.9606 144.898 19.5428 144.39 19.2479C143.899 18.9367 143.317 18.781 142.646 18.781C141.99 18.781 141.409 18.9367 140.901 19.2479C140.409 19.5428 140.016 19.9606 139.721 20.5012C139.443 21.0418 139.304 21.6643 139.304 22.3688C139.304 23.0732 139.443 23.6957 139.721 24.2363C140.016 24.777 140.409 25.2029 140.901 25.5142C141.409 25.809 141.99 25.9565 142.646 25.9565ZM145.816 28.2664V25.0964L146.282 22.2213L145.816 19.3708V16.4711H148.519V28.2664H145.816ZM153.312 28.2664V11.5565H156.015V28.2664H153.312ZM150.486 18.9285V16.4711H158.841V18.9285H150.486ZM165.9 28.5121C164.737 28.5121 163.681 28.2418 162.73 27.7012C161.797 27.1606 161.059 26.4234 160.519 25.4896C159.978 24.5558 159.708 23.5155 159.708 22.3688C159.708 21.2056 159.978 20.1653 160.519 19.2479C161.059 18.3141 161.797 17.5769 162.73 17.0363C163.681 16.4957 164.737 16.2254 165.9 16.2254C166.818 16.2254 167.67 16.4056 168.456 16.766C169.259 17.11 169.939 17.6097 170.496 18.265L168.726 20.0589C168.382 19.6493 167.965 19.3462 167.473 19.1496C166.998 18.9367 166.474 18.8302 165.9 18.8302C165.229 18.8302 164.631 18.9858 164.106 19.2971C163.599 19.592 163.197 20.0015 162.902 20.5258C162.624 21.05 162.485 21.6643 162.485 22.3688C162.485 23.0568 162.624 23.6712 162.902 24.2118C163.197 24.736 163.599 25.1538 164.106 25.465C164.631 25.7599 165.229 25.9073 165.9 25.9073C166.474 25.9073 166.998 25.809 167.473 25.6125C167.965 25.3995 168.382 25.0882 168.726 24.6787L170.496 26.4725C169.939 27.1278 169.259 27.6357 168.456 27.9961C167.67 28.3401 166.818 28.5121 165.9 28.5121ZM180.529 28.2664V21.4595C180.529 20.6732 180.275 20.0261 179.767 19.5182C179.276 19.0104 178.637 18.7565 177.851 18.7565C177.326 18.7565 176.859 18.8711 176.45 19.1005C176.04 19.3298 175.721 19.6493 175.491 20.0589C175.262 20.4684 175.147 20.9353 175.147 21.4595L174.091 20.8698C174.091 19.9688 174.287 19.1742 174.681 18.4862C175.074 17.7817 175.614 17.2329 176.302 16.8397C177.007 16.4302 177.793 16.2254 178.661 16.2254C179.546 16.2254 180.332 16.422 181.02 16.8152C181.709 17.2083 182.249 17.7571 182.642 18.4616C183.036 19.1496 183.232 19.9524 183.232 20.8698V28.2664H180.529ZM172.444 28.2664V10.5735H175.147V28.2664H172.444Z" fill="black"/>
</svg>
