<svg width="207" height="37" viewBox="0 0 207 37" fill="none" xmlns="http://www.w3.org/2000/svg">
<path d="M20.3685 28.2664L12.4067 19.2971L20.1965 11.065H23.8087L15.208 20.0097L15.2326 18.4616L24.0545 28.2664H20.3685ZM9.9739 28.2664V11.065H12.7998V28.2664H9.9739ZM29.7807 28.5121C28.7813 28.5121 27.8885 28.291 27.1022 27.8486C26.3322 27.4063 25.7261 26.8002 25.2837 26.0302C24.8578 25.2439 24.6448 24.3428 24.6448 23.3271V16.4711H27.3479V23.2043C27.3479 23.7776 27.438 24.2691 27.6182 24.6787C27.8148 25.0718 28.0933 25.3749 28.4537 25.5879C28.8305 25.8009 29.2728 25.9073 29.7807 25.9073C30.567 25.9073 31.165 25.678 31.5745 25.2193C32.0005 24.7442 32.2134 24.0725 32.2134 23.2043V16.4711H34.9165V23.3271C34.9165 24.3592 34.6954 25.2684 34.253 26.0548C33.8271 26.8247 33.2291 27.4309 32.4592 27.8732C31.6892 28.2992 30.7964 28.5121 29.7807 28.5121ZM39.4282 28.2664V11.5565H42.1313V28.2664H39.4282ZM36.6023 18.9285V16.4711H44.9573V18.9285H36.6023ZM55.0061 28.2664V21.4595C55.0061 20.6732 54.7521 20.0261 54.2443 19.5182C53.7528 19.0104 53.1139 18.7565 52.3276 18.7565C51.8033 18.7565 51.3364 18.8711 50.9269 19.1005C50.5173 19.3298 50.1979 19.6493 49.9685 20.0589C49.7392 20.4684 49.6245 20.9353 49.6245 21.4595L48.5678 20.8698C48.5678 19.9688 48.7644 19.1742 49.1576 18.4862C49.5508 17.7817 50.0914 17.2329 50.7794 16.8397C51.4839 16.4302 52.2702 16.2254 53.1385 16.2254C54.0231 16.2254 54.8095 16.4548 55.4975 16.9135C56.1856 17.3558 56.7262 17.9374 57.1194 18.6582C57.5126 19.3626 57.7091 20.0998 57.7091 20.8698V28.2664H55.0061ZM46.9214 28.2664V16.4711H49.6245V28.2664H46.9214ZM60.4806 28.2664V16.4711H63.1836V28.2664H60.4806ZM61.8321 14.3087C61.3734 14.3087 60.9884 14.153 60.6772 13.8418C60.3823 13.5305 60.2348 13.1455 60.2348 12.6868C60.2348 12.2281 60.3823 11.8431 60.6772 11.5319C60.9884 11.2206 61.3734 11.065 61.8321 11.065C62.3072 11.065 62.6922 11.2206 62.9871 11.5319C63.2819 11.8431 63.4294 12.2281 63.4294 12.6868C63.4294 13.1455 63.2819 13.5305 62.9871 13.8418C62.6922 14.153 62.3072 14.3087 61.8321 14.3087ZM68.0092 28.2664V11.5565H70.7123V28.2664H68.0092ZM65.1833 18.9285V16.4711H73.5383V18.9285H65.1833ZM75.527 28.2664V16.4711H78.2301V28.2664H75.527ZM76.8785 14.3087C76.4198 14.3087 76.0348 14.153 75.7236 13.8418C75.4287 13.5305 75.2813 13.1455 75.2813 12.6868C75.2813 12.2281 75.4287 11.8431 75.7236 11.5319C76.0348 11.2206 76.4198 11.065 76.8785 11.065C77.3536 11.065 77.7386 11.2206 78.0335 11.5319C78.3284 11.8431 78.4758 12.2281 78.4758 12.6868C78.4758 13.1455 78.3284 13.5305 78.0335 13.8418C77.7386 14.153 77.3536 14.3087 76.8785 14.3087ZM90.9731 28.2664L85.3212 11.065H88.098L92.3492 24.3101H91.612L95.7649 11.065H97.7308L101.884 24.3101H101.147L105.398 11.065H108.175L102.523 28.2664H100.557L96.3793 15.0459H97.1165L92.939 28.2664H90.9731ZM113.534 28.5121C112.469 28.5121 111.503 28.2418 110.635 27.7012C109.783 27.1606 109.103 26.4316 108.595 25.5142C108.103 24.5804 107.858 23.5401 107.858 22.3933C107.858 21.2302 108.103 20.1899 108.595 19.2725C109.103 18.3387 109.783 17.6015 110.635 17.0609C111.503 16.5039 112.469 16.2254 113.534 16.2254C114.435 16.2254 115.23 16.422 115.918 16.8152C116.622 17.192 117.179 17.7162 117.589 18.3879C117.998 19.0595 118.203 19.8213 118.203 20.6732V24.0643C118.203 24.9162 117.998 25.678 117.589 26.3497C117.196 27.0213 116.647 27.5538 115.942 27.9469C115.238 28.3237 114.435 28.5121 113.534 28.5121ZM113.977 25.9565C114.976 25.9565 115.779 25.6206 116.385 24.949C117.007 24.2773 117.319 23.4172 117.319 22.3688C117.319 21.6643 117.179 21.0418 116.901 20.5012C116.622 19.9606 116.229 19.5428 115.721 19.2479C115.23 18.9367 114.648 18.781 113.977 18.781C113.321 18.781 112.74 18.9367 112.232 19.2479C111.74 19.5428 111.347 19.9606 111.052 20.5012C110.774 21.0418 110.635 21.6643 110.635 22.3688C110.635 23.0732 110.774 23.6957 111.052 24.2363C111.347 24.777 111.74 25.2029 112.232 25.5142C112.74 25.809 113.321 25.9565 113.977 25.9565ZM117.147 28.2664V25.0964L117.613 22.2213L117.147 19.3708V16.4711H119.85V28.2664H117.147ZM124.643 28.2664V11.5565H127.346V28.2664H124.643ZM121.817 18.9285V16.4711H130.172V18.9285H121.817ZM137.231 28.5121C136.068 28.5121 135.011 28.2418 134.061 27.7012C133.128 27.1606 132.39 26.4234 131.85 25.4896C131.309 24.5558 131.039 23.5155 131.039 22.3688C131.039 21.2056 131.309 20.1653 131.85 19.2479C132.39 18.3141 133.128 17.5769 134.061 17.0363C135.011 16.4957 136.068 16.2254 137.231 16.2254C138.149 16.2254 139.001 16.4056 139.787 16.766C140.59 17.11 141.27 17.6097 141.826 18.265L140.057 20.0589C139.713 19.6493 139.295 19.3462 138.804 19.1496C138.329 18.9367 137.805 18.8302 137.231 18.8302C136.56 18.8302 135.962 18.9858 135.437 19.2971C134.93 19.592 134.528 20.0015 134.233 20.5258C133.955 21.05 133.816 21.6643 133.816 22.3688C133.816 23.0568 133.955 23.6712 134.233 24.2118C134.528 24.736 134.93 25.1538 135.437 25.465C135.962 25.7599 136.56 25.9073 137.231 25.9073C137.805 25.9073 138.329 25.809 138.804 25.6125C139.295 25.3995 139.713 25.0882 140.057 24.6787L141.826 26.4725C141.27 27.1278 140.59 27.6357 139.787 27.9961C139.001 28.3401 138.149 28.5121 137.231 28.5121ZM151.86 28.2664V21.4595C151.86 20.6732 151.606 20.0261 151.098 19.5182C150.607 19.0104 149.968 18.7565 149.181 18.7565C148.657 18.7565 148.19 18.8711 147.781 19.1005C147.371 19.3298 147.052 19.6493 146.822 20.0589C146.593 20.4684 146.478 20.9353 146.478 21.4595L145.422 20.8698C145.422 19.9688 145.618 19.1742 146.011 18.4862C146.405 17.7817 146.945 17.2329 147.633 16.8397C148.338 16.4302 149.124 16.2254 149.992 16.2254C150.877 16.2254 151.663 16.422 152.351 16.8152C153.039 17.2083 153.58 17.7571 153.973 18.4616C154.366 19.1496 154.563 19.9524 154.563 20.8698V28.2664H151.86ZM143.775 28.2664V10.5735H146.478V28.2664H143.775Z" fill="black"/>
<rect x="163" y="5.66666" width="44" height="26.6667" rx="5.33333" fill="#D7D7D7"/>
<path d="M169.532 24V13.488H173.526C175.659 13.488 176.695 14.8095 176.695 16.2061C176.695 17.1072 176.275 17.828 175.479 18.3536C176.53 18.9392 177.131 19.8553 177.131 21.0116C177.131 22.6334 175.914 24 173.662 24H169.532ZM173.481 14.9897H171.259V17.7229H173.481C174.382 17.7229 174.968 17.2573 174.968 16.3563C174.968 15.4553 174.382 14.9897 173.481 14.9897ZM173.737 19.2246H171.259V22.4983H173.737C174.788 22.4983 175.404 21.7324 175.404 20.8614C175.404 19.9904 174.788 19.2246 173.737 19.2246ZM181.997 24.1502C179.835 24.1502 178.183 22.5433 178.183 20.3959C178.183 18.2785 179.82 16.6416 181.907 16.6416C183.904 16.6416 185.346 18.1583 185.346 20.2307C185.346 20.471 185.316 20.7113 185.256 21.0116H179.88C180.12 22.0027 180.901 22.6034 181.982 22.6034C182.718 22.6034 183.379 22.3481 183.814 21.8375L184.865 22.9038C184.16 23.7297 183.123 24.1502 181.997 24.1502ZM181.877 18.1583C180.856 18.1583 180.12 18.729 179.88 19.6601H183.724C183.514 18.699 182.883 18.1583 181.877 18.1583ZM187.59 24V18.2935H185.864V16.7918H187.59V13.7884H189.242V16.7918H190.969V18.2935H189.242V24H187.59ZM194.983 24.1502C193.031 24.1502 191.514 22.5133 191.514 20.4109C191.514 18.2935 193.031 16.6416 194.983 16.6416C195.899 16.6416 196.68 17.002 197.19 17.5877V16.7918H198.842V24H197.19V23.2191C196.68 23.8048 195.899 24.1502 194.983 24.1502ZM195.253 22.5884C196.469 22.5884 197.295 21.6874 197.295 20.3959C197.295 19.1044 196.469 18.2034 195.253 18.2034C194.052 18.2034 193.211 19.1044 193.211 20.3959C193.211 21.6874 194.052 22.5884 195.253 22.5884Z" fill="black"/>
</svg>
