<svg width="39" height="38" viewBox="0 0 39 38" fill="none" xmlns="http://www.w3.org/2000/svg">
<path d="M35.4532 0H2.82649C1.2662 0 0 1.22708 0 2.73811V35.2582C0 36.7713 1.2662 38 2.82649 38H35.4532C37.0145 38 38.2893 36.7713 38.2893 35.2582V2.73811C38.2893 1.22708 37.0145 0 35.4532 0ZM11.356 32.3813H5.67426V14.2474H11.356V32.3813ZM8.51511 11.7679C6.69477 11.7679 5.22329 10.3038 5.22329 8.49881C5.22329 6.69644 6.69477 5.23239 8.51511 5.23239C10.3312 5.23239 11.8064 6.69644 11.8064 8.49881C11.8064 10.3038 10.3312 11.7679 8.51511 11.7679ZM32.6256 32.3813H26.953V23.5632C26.953 21.4594 26.9115 18.7546 24.001 18.7546C21.0453 18.7546 20.5948 21.0457 20.5948 23.4106V32.3818H14.9179V14.2474H20.3662V16.7237H20.4438C21.2021 15.2987 23.0549 13.7951 25.8181 13.7951C31.5647 13.7951 32.6262 17.5497 32.6262 22.4342L32.6256 32.3813Z" fill="black"/>
</svg>
