<svg width="38" height="38" viewBox="0 0 38 38" fill="none" xmlns="http://www.w3.org/2000/svg">
<rect width="38" height="38" rx="7" fill="black"/>
<path d="M29.5199 13.479C29.2466 12.5091 28.4903 11.7485 27.5161 11.4796C25.7223 11 18.511 11 18.511 11C18.511 11 11.3134 10.9885 9.50084 11.4796C8.53167 11.7492 7.77172 12.5091 7.50139 13.479C7.16131 15.3174 6.99236 17.1781 7.00027 19.0475C6.99667 20.9046 7.16491 22.7624 7.50139 24.5893C7.77172 25.5592 8.53167 26.3198 9.50084 26.5931C11.2947 27.0726 18.511 27.0726 18.511 27.0726C18.511 27.0726 25.7043 27.0726 27.5161 26.5931C28.4903 26.3198 29.2466 25.5599 29.5199 24.5893C29.8499 22.7624 30.0109 20.9046 29.9994 19.0475C30.0109 17.1781 29.8535 15.3174 29.5199 13.479ZM16.2074 22.4892V15.5906L22.2101 19.0475L16.2074 22.4892Z" fill="white"/>
</svg>
